<?xml version="1.0" encoding="UTF-8"?> <svg xmlns="http://www.w3.org/2000/svg" width="400" height="400" viewBox="0 0 400 400" fill="none"><g clip-path="url(#clip0_34_450)"><rect width="400" height="400" fill="white"></rect><path d="M316.322 261.71C364.502 213.531 364.502 135.416 316.322 87.2368C268.143 39.0573 190.028 39.0573 141.849 87.2368C93.6695 135.416 93.6695 213.531 141.849 261.71C190.028 309.889 268.143 309.889 316.322 261.71Z" stroke="black" stroke-width="2" stroke-linecap="round" stroke-linejoin="round"></path><path d="M258.151 319.868C306.33 271.689 306.33 193.574 258.151 145.395C209.971 97.2153 131.857 97.2153 83.6776 145.395C35.4981 193.574 35.4981 271.689 83.6776 319.868C131.857 368.047 209.971 368.047 258.151 319.868Z" stroke="black" stroke-width="2" stroke-linecap="round" stroke-linejoin="round"></path><path d="M316.322 319.868C364.501 271.689 364.501 193.574 316.322 145.395C268.142 97.2153 190.028 97.2153 141.848 145.395C93.669 193.574 93.669 271.689 141.848 319.868C190.028 368.047 268.142 368.047 316.322 319.868Z" stroke="black" stroke-width="2" stroke-linecap="round" stroke-linejoin="round"></path><path d="M258.16 261.716C306.339 213.537 306.339 135.423 258.16 87.2431C209.98 39.0636 131.866 39.0636 83.6863 87.2431C35.5069 135.423 35.5069 213.537 83.6863 261.716C131.866 309.896 209.98 309.896 258.16 261.716Z" stroke="black" stroke-width="2" stroke-linecap="round" stroke-linejoin="round"></path></g><defs><clipPath id="clip0_34_450"><rect width="400" height="400" fill="white"></rect></clipPath></defs></svg> 